Coordinates
version=1
nRows=6
nColumns=63
inDegrees=yes

Units are S.I. units (second, meters, Newtons, ...)
If the header above contains a line with 'inDegrees', this indicates whether rotational values are in degrees (yes) or radians (no).

endheader
time	pelvis_tilt	pelvis_list	pelvis_rotation	pelvis_tx	pelvis_ty	pelvis_tz	hip_flexion_r	hip_adduction_r	hip_rotation_r	knee_angle_r	knee_angle_r_beta	ankle_angle_r	subtalar_angle_r	mtp_angle_r	hip_flexion_l	hip_adduction_l	hip_rotation_l	knee_angle_l	knee_angle_l_beta	ankle_angle_l	subtalar_angle_l	mtp_angle_l	L5_S1_Flex_Ext	L5_S1_Lat_Bending	L5_S1_axial_rotation	L4_L5_Flex_Ext	L4_L5_Lat_Bending	L4_L5_axial_rotation	L3_L4_Flex_Ext	L3_L4_Lat_Bending	L3_L4_axial_rotation	L2_L3_Flex_Ext	L2_L3_Lat_Bending	L2_L3_axial_rotation	L1_L2_Flex_Ext	L1_L2_Lat_Bending	L1_L2_axial_rotation	L1_T12_Flex_Ext	L1_T12_Lat_Bending	L1_T12_axial_rotation	Abs_r3	Abs_r2	Abs_r1	Abs_t1	Abs_t2	neck_flexion	neck_bending	neck_rotation	arm_flex_r	arm_add_r	arm_rot_r	elbow_flex_r	pro_sup_r	wrist_flex_r	wrist_dev_r	arm_flex_l	arm_add_l	arm_rot_l	elbow_flex_l	pro_sup_l	wrist_flex_l	wrist_dev_l
3.016667	8.535071	3.366367	91.847627	0.237343	1.110042	0.354679	-15.682225	6.318290	1.633015	12.732617	0.222226	31.170210	0.193918	0.000000	-15.649021	-8.096030	3.610368	12.898035	0.225113	38.432229	-5.484791	0.000000	-1.279466	0.646190	7.631764	-2.376095	0.859433	8.108750	-2.102034	1.571147	8.108750	-1.462301	1.571147	6.677794	-1.188112	1.317711	6.200808	-0.731087	1.000948	5.723823	-9.139094	7.309831	42.445583	0.000000	0.000000	-1.885261	-0.551087	-44.663223	-4.033967	-37.732135	-64.056186	132.852647	72.750362	7.749035	9.171024	66.655862	55.069613	169.571895	0.038843	0.521184	-69.934992	-24.711805
3.033333	8.702734	3.395150	92.327047	0.236541	1.110327	0.355242	-15.669670	6.597216	1.088294	12.659579	0.220951	31.265982	0.441033	0.000000	-15.380037	-8.414025	3.711158	13.239027	0.231065	38.537061	-5.193913	0.000000	-1.271078	0.684852	7.567756	-2.360520	0.910853	8.040741	-2.088255	1.665149	8.040741	-1.452716	1.665149	6.621786	-1.180323	1.396550	6.148802	-0.726294	1.060836	5.675817	-9.079186	7.747183	42.089587	0.000000	0.000000	-1.940291	-0.735678	-44.678385	-4.014569	-37.850980	-63.408813	133.509854	70.818940	6.574657	9.366322	65.885258	55.082502	170.698209	0.038539	0.521283	-69.935658	-24.719007
3.050000	8.829350	3.382093	92.827094	0.235862	1.110758	0.355718	-15.629093	6.842452	0.495155	12.552208	0.219077	31.316908	0.686597	0.000000	-15.097077	-8.704786	3.793894	13.512729	0.235842	38.571173	-4.827648	0.000000	-1.259273	0.728253	7.519845	-2.338597	0.968577	7.989835	-2.068860	1.770675	7.989835	-1.439224	1.770675	6.579864	-1.169361	1.485054	6.109874	-0.719549	1.128064	5.639884	-8.994864	8.238146	41.823123	0.000000	0.000000	-2.017863	-1.096158	-44.719859	-4.023272	-38.131054	-62.909289	134.379416	69.232617	5.134866	9.965784	64.923753	54.850360	171.823478	0.038171	0.520442	-69.936395	-24.729011
3.066667	8.906860	3.291472	93.338133	0.235342	1.111307	0.356012	-15.531675	7.043056	-0.132085	12.406226	0.216529	31.312239	0.932129	0.000000	-14.774869	-8.956003	3.860089	13.709579	0.239277	38.524092	-4.393883	0.000000	-1.241802	0.773011	7.482692	-2.306151	1.028104	7.950360	-2.040157	1.879499	7.950360	-1.419256	1.879499	6.547355	-1.153138	1.576324	6.079687	-0.709566	1.197394	5.612019	-8.870069	8.744453	41.616487	0.000000	0.000000	-2.157494	-1.703711	-44.906329	-3.994844	-38.582327	-62.485883	135.455089	68.179607	3.499480	10.944027	63.764633	54.304366	172.878855	0.037840	0.518990	-69.937050	-24.742020
3.083333	8.926633	3.097283	93.846305	0.234996	1.111941	0.356035	-15.358672	7.183175	-0.786414	12.219539	0.213271	31.251524	1.196694	0.000000	-14.405311	-9.148366	3.933727	13.807741	0.240991	38.373795	-3.941406	0.000000	-1.217679	0.815440	7.445141	-2.261352	1.084535	7.910462	-2.000525	1.982661	7.910462	-1.391685	1.982661	6.514498	-1.130737	1.662845	6.049177	-0.695782	1.263117	5.583856	-8.697759	9.224420	41.407639	0.000000	0.000000	-2.366386	-2.625288	-45.331099	-3.829773	-39.197032	-61.991266	136.745096	67.786390	1.658336	12.283746	62.408571	53.368585	173.769890	0.037762	0.516555	-69.937296	-24.759444
3.100000	8.890099	2.782418	94.314891	0.234829	1.112626	0.355730	-15.096570	7.249586	-1.442381	11.994774	0.209348	31.135391	1.511934	0.000000	-13.987404	-9.270293	3.955760	13.793978	0.240750	38.128694	-3.436361	0.000000	-1.186023	0.854083	7.388941	-2.202563	1.135931	7.850750	-1.948516	2.076618	7.850750	-1.355505	2.076618	6.465323	-1.101341	1.741647	6.003514	-0.677693	1.322975	5.541706	-8.471641	9.661561	41.095072	0.000000	0.000000	-2.540365	-3.855659	-45.817673	-3.337613	-39.918688	-61.173743	138.205781	68.086165	-0.274723	13.906815	60.849460	51.965381	174.342426	0.038240	0.513546	-69.936804	-24.763514
